<svg width="24" height="24" viewBox="0 0 24 24" fill="none" xmlns="http://www.w3.org/2000/svg">
<path d="M20.5 9.5V18.5C20.5 18.9659 20.5 19.1989 20.4239 19.3827C20.3224 19.6277 20.1277 19.8224 19.8827 19.9239C19.6989 20 19.4659 20 19 20C18.5341 20 18.3011 20 18.1173 19.9239C17.8723 19.8224 17.6776 19.6277 17.5761 19.3827C17.5 19.1989 17.5 18.9659 17.5 18.5V9.5C17.5 9.03406 17.5 8.80109 17.5761 8.61732C17.6776 8.37229 17.8723 8.17761 18.1173 8.07612C18.3011 8 18.5341 8 19 8C19.4659 8 19.6989 8 19.8827 8.07612C20.1277 8.17761 20.3224 8.37229 20.4239 8.61732C20.5 8.80109 20.5 9.03406 20.5 9.5Z" fill="#3C6E47" stroke="#3C6E47" stroke-width="1.5" stroke-linecap="square" stroke-linejoin="round"/>
<path d="M13.5 5.5V18.4995C13.5 18.9654 13.5 19.1984 13.4239 19.3822C13.3224 19.6272 13.1277 19.8219 12.8827 19.9234C12.6989 19.9995 12.4659 19.9995 12 19.9995C11.5341 19.9995 11.3011 19.9995 11.1173 19.9234C10.8723 19.8219 10.6776 19.6272 10.5761 19.3822C10.5 19.1984 10.5 18.9654 10.5 18.4995V5.5C10.5 5.03406 10.5 4.80109 10.5761 4.61732C10.6776 4.37229 10.8723 4.17761 11.1173 4.07612C11.3011 4 11.5341 4 12 4C12.4659 4 12.6989 4 12.8827 4.07612C13.1277 4.17761 13.3224 4.37229 13.4239 4.61732C13.5 4.80109 13.5 5.03406 13.5 5.5Z" fill="#3C6E47" stroke="#3C6E47" stroke-width="1.5" stroke-linecap="square" stroke-linejoin="round"/>
<path d="M6.5 12.5V18.5C6.5 18.9659 6.5 19.1989 6.4239 19.3827C6.3224 19.6277 6.1277 19.8224 5.8827 19.9239C5.6989 20 5.4659 20 5 20C4.5341 20 4.3011 20 4.1173 19.9239C3.8723 19.8224 3.6776 19.6277 3.5761 19.3827C3.5 19.1989 3.5 18.9659 3.5 18.5V12.5C3.5 12.0341 3.5 11.8011 3.5761 11.6173C3.6776 11.3723 3.8723 11.1776 4.1173 11.0761C4.3011 11 4.5341 11 5 11C5.4659 11 5.6989 11 5.8827 11.0761C6.1277 11.1776 6.3224 11.3723 6.4239 11.6173C6.5 11.8011 6.5 12.0341 6.5 12.5Z" fill="#3C6E47" stroke="#3C6E47" stroke-width="1.5" stroke-linecap="square" stroke-linejoin="round"/>
</svg>
