<svg width="60" height="53" viewBox="0 0 60 53" fill="none" xmlns="http://www.w3.org/2000/svg">
<path d="M3.75 0C5.82422 0 7.5 1.67578 7.5 3.75V43.125C7.5 44.1562 8.34375 45 9.375 45H56.25C58.3242 45 60 46.6758 60 48.75C60 50.8242 58.3242 52.5 56.25 52.5H9.375C4.19531 52.5 0 48.3047 0 43.125V3.75C0 1.67578 1.67578 0 3.75 0ZM18.75 22.5C20.8242 22.5 22.5 24.1758 22.5 26.25V33.75C22.5 35.8242 20.8242 37.5 18.75 37.5C16.6758 37.5 15 35.8242 15 33.75V26.25C15 24.1758 16.6758 22.5 18.75 22.5ZM33.75 15V33.75C33.75 35.8242 32.0742 37.5 30 37.5C27.9258 37.5 26.25 35.8242 26.25 33.75V15C26.25 12.9258 27.9258 11.25 30 11.25C32.0742 11.25 33.75 12.9258 33.75 15ZM41.25 18.75C43.3242 18.75 45 20.4258 45 22.5V33.75C45 35.8242 43.3242 37.5 41.25 37.5C39.1758 37.5 37.5 35.8242 37.5 33.75V22.5C37.5 20.4258 39.1758 18.75 41.25 18.75ZM56.25 7.5V33.75C56.25 35.8242 54.5742 37.5 52.5 37.5C50.4258 37.5 48.75 35.8242 48.75 33.75V7.5C48.75 5.42578 50.4258 3.75 52.5 3.75C54.5742 3.75 56.25 5.42578 56.25 7.5Z" fill="#3C6E47"/>
</svg>
