<svg width="14" height="18" viewBox="0 0 14 18" fill="none" xmlns="http://www.w3.org/2000/svg">
<path d="M13.5 18H0V0H13.5V18Z" stroke="#E5E7EB"/>
<g clip-path="url(#clip0_1_891)">
<path d="M2.25 0C1.00898 0 0 1.00898 0 2.25V15.75C0 16.991 1.00898 18 2.25 18H11.25C12.491 18 13.5 16.991 13.5 15.75V5.625H9C8.37773 5.625 7.875 5.12227 7.875 4.5V0H2.25ZM9 0V4.5H13.5L9 0ZM7.59375 8.15625V11.7457L8.68359 10.6559C9.01406 10.3254 9.54844 10.3254 9.87539 10.6559C10.2023 10.9863 10.2059 11.5207 9.87539 11.8477L7.34414 14.3789C7.01367 14.7094 6.4793 14.7094 6.15234 14.3789L3.62109 11.8477C3.29063 11.5172 3.29063 10.9828 3.62109 10.6559C3.95156 10.3289 4.48594 10.3254 4.81289 10.6559L5.90273 11.7457V8.15625C5.90273 7.68867 6.27891 7.3125 6.74648 7.3125C7.21406 7.3125 7.59023 7.68867 7.59023 8.15625H7.59375Z" fill="white"/>
</g>
<defs>
<clipPath id="clip0_1_891">
<path d="M0 0H13.5V18H0V0Z" fill="white"/>
</clipPath>
</defs>
</svg>
