<svg width="15" height="15" viewBox="0 0 15 15" fill="none" xmlns="http://www.w3.org/2000/svg">
<path d="M14 14H0V0H14V14Z" stroke="#E5E7EB"/>
<path d="M15 15H0V0H15V15Z" stroke="#E5E7EB"/>
<path d="M1.17188 1.40625C0.782227 1.40625 0.46875 1.71973 0.46875 2.10938V3.51562C0.46875 3.90527 0.782227 4.21875 1.17188 4.21875H2.57812C2.96777 4.21875 3.28125 3.90527 3.28125 3.51562V2.10938C3.28125 1.71973 2.96777 1.40625 2.57812 1.40625H1.17188ZM5.625 1.875C5.10645 1.875 4.6875 2.29395 4.6875 2.8125C4.6875 3.33105 5.10645 3.75 5.625 3.75H14.0625C14.5811 3.75 15 3.33105 15 2.8125C15 2.29395 14.5811 1.875 14.0625 1.875H5.625ZM5.625 6.5625C5.10645 6.5625 4.6875 6.98145 4.6875 7.5C4.6875 8.01855 5.10645 8.4375 5.625 8.4375H14.0625C14.5811 8.4375 15 8.01855 15 7.5C15 6.98145 14.5811 6.5625 14.0625 6.5625H5.625ZM5.625 11.25C5.10645 11.25 4.6875 11.6689 4.6875 12.1875C4.6875 12.7061 5.10645 13.125 5.625 13.125H14.0625C14.5811 13.125 15 12.7061 15 12.1875C15 11.6689 14.5811 11.25 14.0625 11.25H5.625ZM0.46875 6.79688V8.20312C0.46875 8.59277 0.782227 8.90625 1.17188 8.90625H2.57812C2.96777 8.90625 3.28125 8.59277 3.28125 8.20312V6.79688C3.28125 6.40723 2.96777 6.09375 2.57812 6.09375H1.17188C0.782227 6.09375 0.46875 6.40723 0.46875 6.79688ZM1.17188 10.7812C0.782227 10.7812 0.46875 11.0947 0.46875 11.4844V12.8906C0.46875 13.2803 0.782227 13.5938 1.17188 13.5938H2.57812C2.96777 13.5938 3.28125 13.2803 3.28125 12.8906V11.4844C3.28125 11.0947 2.96777 10.7812 2.57812 10.7812H1.17188Z" fill="white"/>
</svg>
