<svg width="60" height="53" viewBox="0 0 60 53" fill="none" xmlns="http://www.w3.org/2000/svg">
<path d="M7.5 3.75C7.5 1.67578 5.82422 0 3.75 0C1.67578 0 0 1.67578 0 3.75V43.125C0 48.3047 4.19531 52.5 9.375 52.5H56.25C58.3242 52.5 60 50.8242 60 48.75C60 46.6758 58.3242 45 56.25 45H9.375C8.34375 45 7.5 44.1562 7.5 43.125V3.75ZM55.1484 13.8984C56.6133 12.4336 56.6133 10.0547 55.1484 8.58984C53.6836 7.125 51.3047 7.125 49.8398 8.58984L37.5 20.9414L30.7734 14.2148C29.3086 12.75 26.9297 12.75 25.4648 14.2148L12.3398 27.3398C10.875 28.8047 10.875 31.1836 12.3398 32.6484C13.8047 34.1133 16.1836 34.1133 17.6484 32.6484L28.125 22.1836L34.8516 28.9102C36.3164 30.375 38.6953 30.375 40.1602 28.9102L55.1602 13.9102L55.1484 13.8984Z" fill="#3C6E47"/>
</svg>
