<svg width="27" height="24" viewBox="0 0 27 24" fill="none" xmlns="http://www.w3.org/2000/svg">
<g clip-path="url(#clip0_1_1232)">
<g clip-path="url(#clip1_1_1232)">
<path d="M25.6688 4.86563L22.9828 0.614063C22.7438 0.234375 22.3172 0 21.8625 0H5.13752C4.68283 0 4.25627 0.234375 4.01721 0.614063L1.32658 4.86563C-0.0609191 7.05938 1.16721 10.1109 3.75939 10.4625C3.94689 10.4859 4.13908 10.5 4.32658 10.5C5.55002 10.5 6.63752 9.96562 7.38283 9.14062C8.12814 9.96562 9.21564 10.5 10.4391 10.5C11.6625 10.5 12.75 9.96562 13.4953 9.14062C14.2406 9.96562 15.3281 10.5 16.5516 10.5C17.7797 10.5 18.8625 9.96562 19.6078 9.14062C20.3578 9.96562 21.4406 10.5 22.6641 10.5C22.8563 10.5 23.0438 10.4859 23.2313 10.4625C25.8328 10.1156 27.0656 7.06406 25.6735 4.86563H25.6688ZM23.4235 11.9484H23.4188C23.1703 11.9812 22.9172 12 22.6594 12C22.0781 12 21.5203 11.9109 21 11.7516V18H6.00002V11.7469C5.47502 11.9109 4.91252 12 4.33127 12C4.07346 12 3.81564 11.9812 3.56721 11.9484H3.56252C3.37033 11.9203 3.18283 11.8875 3.00002 11.8406V18V21C3.00002 22.6547 4.34533 24 6.00002 24H21C22.6547 24 24 22.6547 24 21V18V11.8406C23.8125 11.8875 23.625 11.925 23.4235 11.9484Z" fill="#3C6E47"/>
</g>
</g>
<defs>
<clipPath id="clip0_1_1232">
<rect width="27" height="24" fill="white"/>
</clipPath>
<clipPath id="clip1_1_1232">
<path d="M0 0H27V24H0V0Z" fill="white"/>
</clipPath>
</defs>
</svg>
