<svg width="14" height="14" viewBox="0 0 14 14" fill="none" xmlns="http://www.w3.org/2000/svg">
<path d="M14 14H0V0H14V14Z" stroke="#E5E7EB"/>
<g clip-path="url(#clip0_1_1267)">
<path d="M13.5598 4.55547C13.6473 4.79336 13.5735 5.05859 13.3848 5.22813L12.2008 6.30547C12.2309 6.53242 12.2473 6.76484 12.2473 7C12.2473 7.23516 12.2309 7.46758 12.2008 7.69453L13.3848 8.77187C13.5735 8.94141 13.6473 9.20664 13.5598 9.44453C13.4395 9.76992 13.2946 10.0816 13.1278 10.3824L12.9992 10.6039C12.8188 10.9047 12.6164 11.1891 12.3949 11.457C12.2336 11.6539 11.9656 11.7195 11.725 11.643L10.202 11.159C9.83557 11.4406 9.43088 11.6758 8.99885 11.8535L8.65705 13.4148C8.60236 13.6637 8.41096 13.8605 8.15939 13.9016C7.78205 13.9645 7.39377 13.9973 6.99728 13.9973C6.6008 13.9973 6.21252 13.9645 5.83518 13.9016C5.58361 13.8605 5.39221 13.6637 5.33752 13.4148L4.99572 11.8535C4.56369 11.6758 4.159 11.4406 3.7926 11.159L2.27228 11.6457C2.03166 11.7223 1.76369 11.6539 1.60236 11.4598C1.38088 11.1918 1.17853 10.9074 0.998066 10.6066L0.86955 10.3852C0.702754 10.0844 0.557832 9.77266 0.437519 9.44727C0.350019 9.20938 0.423847 8.94414 0.612519 8.77461L1.7965 7.69727C1.76643 7.46758 1.75002 7.23516 1.75002 7C1.75002 6.76484 1.76643 6.53242 1.7965 6.30547L0.612519 5.22813C0.423847 5.05859 0.350019 4.79336 0.437519 4.55547C0.557832 4.23008 0.702754 3.91836 0.86955 3.61758L0.998066 3.39609C1.17853 3.09531 1.38088 2.81094 1.60236 2.54297C1.76369 2.34609 2.03166 2.28047 2.27228 2.35703L3.79533 2.84102C4.16174 2.55938 4.56643 2.32422 4.99846 2.14648L5.34025 0.585156C5.39494 0.336328 5.58635 0.139453 5.83791 0.0984375C6.21525 0.0328125 6.60353 0 7.00002 0C7.3965 0 7.78479 0.0328125 8.16213 0.0957031C8.41369 0.136719 8.6051 0.333594 8.65979 0.582422L9.00158 2.14375C9.43361 2.32148 9.8383 2.55664 10.2047 2.83828L11.7278 2.3543C11.9684 2.27773 12.2363 2.34609 12.3977 2.54023C12.6192 2.8082 12.8215 3.09258 13.002 3.39336L13.1305 3.61484C13.2973 3.91562 13.4422 4.22734 13.5625 4.55273L13.5598 4.55547ZM7.00002 9.1875C7.58018 9.1875 8.13658 8.95703 8.54682 8.5468C8.95705 8.13656 9.18752 7.58016 9.18752 7C9.18752 6.41984 8.95705 5.86344 8.54682 5.4532C8.13658 5.04297 7.58018 4.8125 7.00002 4.8125C6.41986 4.8125 5.86346 5.04297 5.45322 5.4532C5.04299 5.86344 4.81252 6.41984 4.81252 7C4.81252 7.58016 5.04299 8.13656 5.45322 8.5468C5.86346 8.95703 6.41986 9.1875 7.00002 9.1875Z" fill="white"/>
</g>
<defs>
<clipPath id="clip0_1_1267">
<path d="M0 0H14V14H0V0Z" fill="white"/>
</clipPath>
</defs>
</svg>
