<svg width="16" height="18" viewBox="0 0 16 18" fill="none" xmlns="http://www.w3.org/2000/svg">
<path d="M15.75 18H0V0H15.75V18Z" stroke="#E5E7EB"/>
<g clip-path="url(#clip0_1_1424)">
<path d="M0.330444 8.20547C-0.109009 8.64492 -0.109009 9.35859 0.330444 9.79804L5.95544 15.423C6.3949 15.8625 7.10857 15.8625 7.54802 15.423C7.98748 14.9836 7.98748 14.2699 7.54802 13.8305L3.83904 10.125H14.625C15.2472 10.125 15.75 9.62226 15.75 9C15.75 8.37773 15.2472 7.875 14.625 7.875H3.84255L7.54451 4.16953C7.98396 3.73007 7.98396 3.0164 7.54451 2.57695C7.10505 2.1375 6.39138 2.1375 5.95193 2.57695L0.326929 8.20195L0.330444 8.20547Z" fill="#3C6E47"/>
</g>
<defs>
<clipPath id="clip0_1_1424">
<path d="M0 0H15.75V18H0V0Z" fill="white"/>
</clipPath>
</defs>
</svg>
