<svg width="14" height="18" viewBox="0 0 14 18" fill="none" xmlns="http://www.w3.org/2000/svg">
<g clip-path="url(#clip0_1_877)">
<g clip-path="url(#clip1_1_877)">
<path d="M2.25 0C1.00898 0 0 1.00898 0 2.25V15.75C0 16.991 1.00898 18 2.25 18H11.25C12.491 18 13.5 16.991 13.5 15.75V5.625H9C8.37773 5.625 7.875 5.12227 7.875 4.5V0H2.25ZM9 0V4.5H13.5L9 0ZM2.25 2.8125C2.25 2.50312 2.50312 2.25 2.8125 2.25H5.0625C5.37187 2.25 5.625 2.50312 5.625 2.8125C5.625 3.12188 5.37187 3.375 5.0625 3.375H2.8125C2.50312 3.375 2.25 3.12188 2.25 2.8125ZM2.25 5.0625C2.25 4.75313 2.50312 4.5 2.8125 4.5H5.0625C5.37187 4.5 5.625 4.75313 5.625 5.0625C5.625 5.37187 5.37187 5.625 5.0625 5.625H2.8125C2.50312 5.625 2.25 5.37187 2.25 5.0625ZM6.75 7.59375C7.05937 7.59375 7.3125 7.84688 7.3125 8.15625V8.76445C7.61133 8.80664 7.89961 8.87344 8.15977 8.94375C8.45859 9.02461 8.63789 9.33047 8.55703 9.63281C8.47617 9.93516 8.17031 10.1109 7.86797 10.0301C7.47773 9.92461 7.09453 9.84727 6.73945 9.84375C6.44414 9.84023 6.12773 9.90703 5.90977 10.0371C5.70938 10.1566 5.625 10.2937 5.625 10.4871C5.625 10.6172 5.6707 10.7156 5.88164 10.8422C6.12422 10.9863 6.46523 11.0918 6.9082 11.2254L6.92578 11.2289C7.32305 11.3484 7.81523 11.4961 8.20195 11.7422C8.62734 12.0094 8.98945 12.4348 9 13.0852C9.01055 13.7637 8.6625 14.2559 8.19492 14.5477C7.92422 14.7164 7.61836 14.8148 7.3125 14.8676V15.4688C7.3125 15.7781 7.05937 16.0312 6.75 16.0312C6.44063 16.0312 6.1875 15.7781 6.1875 15.4688V14.843C5.79375 14.7691 5.42461 14.6426 5.10117 14.5301C5.02734 14.5055 4.95352 14.4809 4.8832 14.4563C4.58789 14.3578 4.42969 14.0379 4.52813 13.7461C4.62656 13.4543 4.94648 13.2926 5.23828 13.391C5.32617 13.4191 5.40703 13.4473 5.48789 13.4754C5.96602 13.6371 6.35273 13.7707 6.76406 13.7812C7.08398 13.7918 7.39336 13.7215 7.59727 13.5949C7.77656 13.4824 7.875 13.3383 7.87148 13.1027C7.86797 12.941 7.8082 12.8285 7.60078 12.6949C7.36172 12.5437 7.0207 12.4348 6.58125 12.3012L6.525 12.2836C6.13828 12.1676 5.6707 12.027 5.30156 11.802C4.87969 11.5488 4.50703 11.1375 4.50352 10.4906C4.5 9.80859 4.8832 9.3375 5.34023 9.0668C5.60391 8.91211 5.8957 8.81367 6.1875 8.76094V8.15625C6.1875 7.84688 6.44063 7.59375 6.75 7.59375Z" fill="#5C8E60"/>
</g>
</g>
<defs>
<clipPath id="clip0_1_877">
<rect width="13.5" height="18" fill="white"/>
</clipPath>
<clipPath id="clip1_1_877">
<path d="M0 0H13.5V18H0V0Z" fill="white"/>
</clipPath>
</defs>
</svg>
