<svg width="150" height="150" viewBox="0 0 150 150" fill="none" xmlns="http://www.w3.org/2000/svg">
<path d="M150 150H0V0H150V150Z" stroke="#E5E7EB"/>
<path d="M75 1C115.869 1 149 34.1309 149 75C149 115.869 115.869 149 75 149C34.1309 149 1 115.869 1 75C1 34.1309 34.1309 1 75 1Z" fill="white"/>
<path d="M75 1C115.869 1 149 34.1309 149 75C149 115.869 115.869 149 75 149C34.1309 149 1 115.869 1 75C1 34.1309 34.1309 1 75 1Z" stroke="#CCCCCC" stroke-width="2"/>
<path d="M93 93H57V57H93V93Z" stroke="#E5E7EB"/>
<path d="M93 93H57V57H93V93Z" stroke="#E5E7EB"/>
<path d="M57 63.75C57 61.268 59.018 59.25 61.5 59.25H88.5C90.982 59.25 93 61.268 93 63.75V86.25C93 88.732 90.982 90.75 88.5 90.75H61.5C59.018 90.75 57 88.732 57 86.25V63.75ZM79.7672 71.2383C79.4508 70.7742 78.9305 70.5 78.375 70.5C77.8195 70.5 77.2922 70.7742 76.9828 71.2383L70.8656 80.2102L69.0023 77.8828C68.6789 77.482 68.1938 77.25 67.6875 77.25C67.1812 77.25 66.6891 77.482 66.3727 77.8828L61.8727 83.5078C61.4648 84.0141 61.3875 84.7102 61.6688 85.2937C61.95 85.8773 62.5406 86.25 63.1875 86.25H69.9375H72.1875H86.8125C87.4383 86.25 88.0148 85.9055 88.3031 85.35C88.5914 84.7945 88.5562 84.1266 88.2047 83.6133L79.7672 71.2383ZM64.875 70.5C65.7701 70.5 66.6286 70.1444 67.2615 69.5115C67.8944 68.8786 68.25 68.0201 68.25 67.125C68.25 66.2299 67.8944 65.3714 67.2615 64.7385C66.6286 64.1056 65.7701 63.75 64.875 63.75C63.9799 63.75 63.1214 64.1056 62.4885 64.7385C61.8556 65.3714 61.5 66.2299 61.5 67.125C61.5 68.0201 61.8556 68.8786 62.4885 69.5115C63.1214 70.1444 63.9799 70.5 64.875 70.5Z" fill="#3C6E47"/>
<path d="M122 102C133.046 102 142 110.954 142 122C142 133.046 133.046 142 122 142C110.954 142 102 133.046 102 122C102 110.954 110.954 102 122 102Z" fill="#3C6E47"/>
<path d="M122 102C133.046 102 142 110.954 142 122C142 133.046 133.046 142 122 142C110.954 142 102 133.046 102 122C102 110.954 110.954 102 122 102Z" stroke="#E5E7EB"/>
<path d="M130 130H114V114H130V130Z" stroke="#E5E7EB"/>
<path d="M130 130H114V114H130V130Z" stroke="#E5E7EB"/>
<path d="M118.659 116.025L118.334 117H116C114.897 117 114 117.897 114 119V127C114 128.103 114.897 129 116 129H128C129.103 129 130 128.103 130 127V119C130 117.897 129.103 117 128 117H125.666L125.341 116.025C125.137 115.413 124.566 115 123.919 115H120.081C119.434 115 118.863 115.413 118.659 116.025ZM122 120C122.796 120 123.559 120.316 124.121 120.879C124.684 121.441 125 122.204 125 123C125 123.796 124.684 124.559 124.121 125.121C123.559 125.684 122.796 126 122 126C121.204 126 120.441 125.684 119.879 125.121C119.316 124.559 119 123.796 119 123C119 122.204 119.316 121.441 119.879 120.879C120.441 120.316 121.204 120 122 120Z" fill="white"/>
</svg>
