<svg width="64" height="60" viewBox="0 0 64 60" fill="none" xmlns="http://www.w3.org/2000/svg">
<path d="M31.875 28.125V1.94531C31.875 0.890625 32.6953 0 33.75 0C48.2461 0 60 11.7539 60 26.25C60 27.3047 59.1094 28.125 58.0547 28.125H31.875ZM0 31.875C0 17.6602 10.5586 5.89453 24.2578 4.01953C25.3359 3.86719 26.25 4.73438 26.25 5.82422V33.75L44.5898 52.0898C45.375 52.875 45.3164 54.1641 44.4141 54.7969C39.8203 58.0781 34.1953 60 28.125 60C12.5977 60 0 47.4141 0 31.875ZM61.6875 33.75C62.7773 33.75 63.6328 34.6641 63.4922 35.7422C62.5898 42.293 59.4375 48.1172 54.832 52.418C54.1289 53.0742 53.0273 53.0273 52.3477 52.3359L33.75 33.75H61.6875Z" fill="#3C6E47"/>
</svg>
