<svg width="14" height="18" viewBox="0 0 14 18" fill="none" xmlns="http://www.w3.org/2000/svg">
<g clip-path="url(#clip0_1_869)">
<g clip-path="url(#clip1_1_869)">
<path d="M0.492188 0.0773335C0.791016 -0.0597759 1.14258 -0.0105571 1.39219 0.203896L2.8125 1.4203L4.23281 0.203896C4.54922 -0.0668071 5.0168 -0.0668071 5.32969 0.203896L6.75 1.4203L8.17031 0.203896C8.48672 -0.0668071 8.9543 -0.0668071 9.26719 0.203896L10.6875 1.4203L12.1078 0.203896C12.3574 -0.0105571 12.709 -0.0597759 13.0078 0.0773335C13.3066 0.214443 13.5 0.513271 13.5 0.84374V17.1562C13.5 17.4867 13.3066 17.7855 13.0078 17.9226C12.709 18.0598 12.3574 18.0105 12.1078 17.7961L10.6875 16.5797L9.26719 17.7961C8.95078 18.0668 8.4832 18.0668 8.17031 17.7961L6.75 16.5797L5.32969 17.7961C5.01328 18.0668 4.5457 18.0668 4.23281 17.7961L2.8125 16.5797L1.39219 17.7961C1.14258 18.0105 0.791016 18.0598 0.492188 17.9226C0.193359 17.7855 0 17.4867 0 17.1562V0.84374C0 0.513271 0.193359 0.214443 0.492188 0.0773335ZM3.375 5.06249C3.06562 5.06249 2.8125 5.31561 2.8125 5.62499C2.8125 5.93436 3.06562 6.18749 3.375 6.18749H10.125C10.4344 6.18749 10.6875 5.93436 10.6875 5.62499C10.6875 5.31561 10.4344 5.06249 10.125 5.06249H3.375ZM2.8125 12.375C2.8125 12.6844 3.06562 12.9375 3.375 12.9375H10.125C10.4344 12.9375 10.6875 12.6844 10.6875 12.375C10.6875 12.0656 10.4344 11.8125 10.125 11.8125H3.375C3.06562 11.8125 2.8125 12.0656 2.8125 12.375ZM3.375 8.43749C3.06562 8.43749 2.8125 8.69061 2.8125 8.99999C2.8125 9.30936 3.06562 9.56249 3.375 9.56249H10.125C10.4344 9.56249 10.6875 9.30936 10.6875 8.99999C10.6875 8.69061 10.4344 8.43749 10.125 8.43749H3.375Z" fill="#3C6E47"/>
</g>
</g>
<defs>
<clipPath id="clip0_1_869">
<rect width="13.5" height="18" fill="white"/>
</clipPath>
<clipPath id="clip1_1_869">
<path d="M0 0H13.5V18H0V0Z" fill="white"/>
</clipPath>
</defs>
</svg>
